<?xml version="1.0" standalone="no"?>
<!DOCTYPE svg PUBLIC "-//W3C//DTD SVG 20010904//EN"
 "http://www.w3.org/TR/2001/REC-SVG-20010904/DTD/svg10.dtd">
<svg version="1.0" xmlns="http://www.w3.org/2000/svg"
 width="715.000000pt" height="522.000000pt" viewBox="0 0 715.000000 522.000000"
 preserveAspectRatio="xMidYMid meet">
<metadata>
Created by potrace 1.16, written by Peter Selinger 2001-2019
</metadata>
<g transform="translate(0.000000,522.000000) scale(0.100000,-0.100000)"
fill="#000000" stroke="none">
<path d="M2515 2770 c-236 -31 -463 -139 -634 -304 -137 -131 -192 -247 -192
-400 0 -107 24 -170 89 -227 113 -99 297 -91 489 22 87 52 243 211 281 287 89
181 57 320 -79 337 -218 27 -507 -186 -535 -395 -13 -94 39 -180 108 -180 33
0 35 23 2 28 -10 2 -30 14 -42 25 -21 19 -23 29 -20 73 9 106 112 247 252 345
239 169 416 49 295 -200 -39 -80 -201 -247 -294 -301 -223 -131 -441 -96 -492
79 -13 47 -14 65 -4 121 25 131 100 250 251 393 153 146 314 228 514 263 108
19 286 14 381 -12 59 -16 195 -81 195 -93 -1 -3 -24 -24 -52 -46 -60 -47 -216
-217 -297 -324 -32 -42 -120 -170 -197 -286 -245 -371 -393 -485 -630 -485
-161 0 -267 71 -263 177 2 30 3 32 6 10 12 -77 123 -45 123 36 0 50 -16 67
-64 67 -37 0 -48 -5 -70 -31 -21 -25 -26 -41 -26 -85 0 -91 43 -144 150 -185
62 -23 206 -26 297 -4 135 32 328 134 429 227 64 59 139 176 252 394 54 105
122 225 152 269 68 98 198 237 218 233 8 -2 26 -24 39 -50 64 -123 5 -285
-129 -354 -43 -22 -51 -23 -104 -13 -72 13 -127 5 -122 -19 3 -14 19 -18 99
-22 86 -5 99 -8 134 -34 130 -99 108 -334 -48 -502 -71 -77 -140 -115 -221
-121 -52 -4 -66 -2 -96 19 -74 50 -85 126 -35 235 30 66 123 165 179 193 56
27 135 27 169 0 53 -42 56 -122 7 -195 -25 -37 -25 -45 -1 -45 27 0 61 85 61
155 0 49 -4 60 -34 92 -30 33 -39 37 -94 41 -82 6 -154 -27 -232 -107 -81 -83
-115 -156 -115 -248 0 -77 13 -106 69 -147 41 -31 183 -35 273 -7 120 36 228
123 280 225 31 60 43 193 24 263 -17 61 -68 123 -135 163 -32 19 -54 35 -50
36 167 37 246 116 247 247 1 77 -26 140 -82 196 l-40 40 62 31 c115 57 254 77
338 49 125 -42 187 -186 146 -341 -14 -55 -10 -77 12 -63 18 10 33 119 29 196
-9 160 -110 249 -282 249 -88 0 -168 -20 -263 -65 l-72 -34 -67 34 c-130 65
-362 98 -539 75z"/>
<path d="M1160 2528 l0 -173 -79 79 c-55 55 -84 77 -95 73 -38 -15 -29 -38 40
-108 l68 -69 -222 0 -222 0 0 -25 0 -25 232 0 233 0 -79 -79 c-79 -80 -89
-103 -50 -118 11 -4 40 18 95 73 l79 79 0 -143 0 -142 25 0 25 0 0 137 0 137
69 -68 c70 -69 93 -78 108 -40 4 11 -17 38 -68 90 l-73 74 237 0 237 0 0 25 0
25 -232 0 -232 0 73 74 c74 75 83 98 45 113 -11 4 -38 -17 -90 -68 l-74 -73 0
162 0 162 -25 0 -25 0 0 -172z"/>
<path d="M4268 2463 l-58 -4 -41 -72 c-146 -252 -339 -572 -380 -628 -64 -87
-193 -210 -250 -237 -64 -31 -122 -29 -148 4 -29 37 -26 71 12 144 l32 63 112
28 c62 15 139 40 170 56 92 45 128 120 84 174 -17 21 -28 24 -78 23 -143 -4
-359 -144 -415 -271 -26 -59 -22 -159 8 -200 39 -52 71 -68 132 -67 74 0 140
34 227 115 l65 61 0 -60 c0 -71 23 -108 74 -118 47 -8 88 16 164 94 l62 65 0
-47 c0 -41 5 -53 34 -82 53 -53 94 -46 175 30 l44 41 -39 -70 c-21 -39 -43
-77 -49 -86 -5 -8 -67 -43 -136 -76 -165 -79 -273 -149 -343 -223 -92 -96
-112 -176 -57 -231 36 -36 85 -38 165 -8 160 59 310 211 452 454 31 55 62 102
67 104 33 13 191 128 237 173 86 83 152 165 148 185 -2 12 -25 -9 -80 -74 -43
-50 -99 -108 -125 -130 -59 -49 -155 -114 -161 -108 -4 4 185 339 243 430 63
99 63 93 -9 91 l-64 -1 -83 -139 c-168 -283 -284 -405 -336 -353 -24 23 -6 62
122 272 64 102 120 195 125 205 9 17 5 18 -56 16 l-65 -2 -73 -121 c-147 -245
-303 -411 -355 -378 -36 21 -3 86 292 579 125 208 227 380 227 382 0 2 -3 3
-7 2 -5 -1 -34 -3 -65 -5z m-516 -503 c-4 -36 -65 -94 -143 -135 -80 -42 -149
-68 -149 -56 0 17 141 160 188 191 59 39 109 39 104 0z m382 -667 c-147 -266
-263 -390 -382 -409 -35 -5 -44 -3 -66 19 -31 31 -32 48 -7 104 42 91 156 184
362 293 63 33 118 60 122 60 5 0 -8 -30 -29 -67z"/>
<path d="M5440 2283 l0 -158 -84 84 c-84 84 -108 94 -123 55 -4 -11 18 -40 73
-95 l79 -79 -228 0 -227 0 0 -25 0 -25 232 0 232 0 -63 -64 c-64 -65 -72 -88
-35 -103 11 -4 36 14 80 58 l64 63 0 -152 0 -152 25 0 25 0 0 152 0 152 64
-63 c44 -44 69 -62 80 -58 37 15 29 38 -35 103 l-63 64 232 0 232 0 0 25 0 25
-232 0 -233 0 89 89 c89 89 100 112 60 128 -11 4 -42 -21 -105 -83 l-89 -89 0
153 0 152 -25 0 -25 0 0 -157z"/>
<path d="M1080 1236 c-97 -29 -163 -63 -239 -124 -119 -96 -164 -175 -165
-287 -1 -81 19 -126 75 -163 30 -21 43 -23 119 -20 70 3 94 9 138 33 134 73
232 204 232 310 0 74 -24 95 -111 95 -81 0 -153 -33 -222 -102 -56 -56 -77
-100 -77 -163 0 -35 6 -52 25 -70 26 -26 40 -31 50 -16 3 5 -4 12 -14 16 -69
22 -16 154 99 250 56 47 98 65 150 65 123 0 103 -149 -39 -283 -85 -80 -146
-110 -231 -115 -55 -3 -70 0 -100 20 -69 47 -79 123 -29 228 43 92 177 222
279 272 101 49 165 61 291 56 86 -3 114 -8 162 -30 31 -15 57 -31 57 -36 0 -4
-13 -18 -30 -30 -55 -41 -179 -193 -289 -356 -159 -235 -240 -303 -367 -314
-84 -6 -127 3 -163 37 -36 33 -40 51 -11 44 26 -7 60 23 60 52 0 49 -56 61
-89 19 -60 -76 16 -171 145 -182 74 -6 154 14 254 64 126 63 183 127 284 322
76 145 185 302 220 315 25 10 51 -39 50 -93 0 -53 -29 -108 -72 -136 -19 -14
-45 -19 -92 -19 -51 0 -65 -3 -65 -15 0 -12 13 -15 57 -16 50 0 62 -4 88 -29
38 -37 54 -84 45 -138 -20 -117 -134 -237 -225 -237 -40 0 -90 47 -90 85 0 40
27 96 68 138 69 72 130 87 172 42 25 -27 25 -31 -7 -127 -10 -33 18 -18 33 17
36 86 2 155 -76 155 -70 0 -139 -48 -189 -130 -29 -48 -29 -137 -1 -168 68
-72 243 -37 333 68 84 99 72 246 -26 310 -37 23 -38 25 -15 31 84 22 128 75
128 152 0 53 -10 79 -47 118 l-24 26 48 24 c32 15 72 24 118 27 61 3 75 1 105
-20 61 -41 86 -124 60 -194 -7 -18 -7 -31 -1 -37 17 -17 33 43 29 113 -4 77
-28 118 -84 145 -54 25 -172 18 -245 -16 l-55 -26 -40 20 c-67 35 -134 47
-254 46 -90 0 -131 -5 -190 -23z"/>
<path d="M4570 1244 c-123 -33 -284 -131 -348 -212 -61 -77 -77 -120 -77 -209
0 -91 13 -118 75 -160 40 -28 142 -31 211 -8 61 21 170 106 215 166 68 93 85
189 39 234 -20 21 -33 25 -87 25 -103 -1 -209 -63 -269 -159 -52 -81 -33 -201
31 -201 27 0 25 13 -2 25 -32 14 -36 71 -7 126 28 56 115 140 171 168 58 28
121 28 149 0 18 -18 21 -29 16 -71 -4 -28 -18 -69 -31 -93 -37 -62 -141 -154
-214 -188 -54 -25 -72 -29 -129 -25 -61 4 -68 7 -100 42 -34 37 -35 40 -31
105 3 55 10 78 38 125 44 73 151 181 222 224 107 64 158 77 308 77 126 0 139
-2 193 -27 31 -15 57 -29 57 -32 0 -3 -23 -27 -51 -53 -78 -73 -165 -182 -278
-351 -158 -233 -247 -302 -392 -302 -95 0 -151 32 -163 95 -6 26 -5 27 3 8 14
-31 47 -29 67 2 37 57 -29 103 -76 53 -33 -35 -27 -93 13 -133 77 -77 229 -72
389 12 129 67 191 141 292 341 56 112 112 197 172 259 50 52 65 49 85 -17 24
-79 -10 -170 -81 -218 -35 -24 -60 -25 -132 -7 -38 10 -36 -9 2 -25 36 -15
124 -16 161 -1 45 17 97 70 115 116 23 62 13 122 -32 180 l-35 46 48 21 c30
14 74 23 118 26 82 4 123 -15 151 -70 19 -35 24 -114 11 -160 -5 -18 -3 -28 3
-28 19 0 32 54 28 120 -4 77 -28 118 -84 145 -54 25 -172 18 -245 -16 l-55
-26 -40 20 c-21 11 -61 26 -89 33 -67 18 -264 17 -335 -2z"/>
<path d="M2537 850 c-27 -46 -39 -56 -67 -61 -31 -6 -32 -7 -7 -8 15 0 27 -4
27 -7 0 -13 -64 -110 -115 -174 -62 -77 -122 -133 -138 -127 -23 8 -5 54 68
175 41 68 75 127 75 130 0 4 -17 8 -38 8 -37 1 -38 1 -102 -104 -70 -113 -160
-217 -181 -210 -28 9 -18 37 61 167 44 73 80 135 80 139 0 4 -17 8 -38 8 -37
1 -39 0 -91 -87 -52 -86 -97 -129 -135 -129 -13 0 -11 10 14 54 26 45 31 64
28 108 l-3 53 -42 3 c-49 4 -116 -27 -181 -83 -58 -51 -86 -106 -79 -162 6
-53 28 -80 72 -89 41 -7 80 12 127 64 28 31 44 40 79 44 l45 5 -4 -34 c-3 -26
1 -40 19 -59 34 -37 66 -31 116 21 39 41 43 43 43 22 0 -29 39 -67 69 -67 13
0 44 21 76 51 l54 51 3 -33 c4 -43 45 -74 84 -65 15 4 47 27 71 50 l42 42 3
-29 c4 -41 46 -72 84 -63 16 4 52 31 81 60 l53 53 0 -34 c0 -38 37 -83 67 -83
10 0 33 9 50 20 l33 20 -48 -78 c-66 -105 -147 -234 -156 -249 -5 -10 4 -13
38 -13 l44 0 191 316 c105 173 191 317 191 319 0 11 -82 -2 -89 -14 -6 -10
-10 -9 -14 3 -10 26 -71 19 -138 -14 -65 -33 -129 -92 -199 -185 -54 -72 -107
-110 -126 -94 -8 6 -14 15 -14 19 0 4 36 67 80 139 44 73 80 135 80 139 0 4
-17 8 -39 8 -37 1 -40 -1 -74 -60 -53 -89 -147 -207 -187 -233 -29 -20 -36
-22 -48 -9 -16 16 -19 10 80 179 l69 117 42 2 42 1 -37 4 c-21 2 -38 6 -38 8
0 3 14 27 30 53 17 27 30 51 30 53 0 3 -18 4 -40 4 -38 0 -42 -2 -73 -55z
m-579 -117 c3 -27 0 -33 -17 -33 -33 0 -62 -47 -59 -97 1 -37 -3 -48 -31 -77
-44 -45 -85 -63 -106 -46 -38 32 7 141 96 233 47 49 61 58 85 55 25 -2 29 -8
32 -35z m1122 17 c0 -30 -25 -75 -86 -157 -67 -89 -118 -131 -139 -113 -21 17
-19 38 10 96 60 121 215 246 215 174z"/>
<path d="M6733 878 c-12 -13 -28 -39 -36 -58 -21 -50 -105 -150 -127 -150 -20
0 -80 -63 -80 -85 0 -26 -60 -83 -104 -100 -57 -22 -86 -9 -86 38 0 53 31 93
79 101 58 9 150 45 172 67 24 24 26 84 3 93 -65 25 -198 -35 -271 -122 -88
-104 -158 -169 -198 -182 -36 -12 -40 -11 -57 10 -14 17 -17 32 -12 54 18 85
132 230 177 224 35 -5 27 -36 -18 -67 -31 -20 -41 -34 -43 -59 -3 -28 0 -32
21 -32 55 0 105 101 81 164 -9 23 -66 20 -117 -5 -70 -36 -105 -67 -152 -138
-45 -68 -134 -161 -155 -161 -27 0 -17 36 34 121 59 98 68 137 40 177 -27 38
-80 30 -131 -20 -30 -29 -43 -37 -43 -26 0 35 -23 68 -47 68 -40 0 -57 -15
-138 -122 -127 -168 -179 -214 -205 -183 -14 16 -6 32 86 181 35 57 64 107 64
112 0 4 -17 8 -39 8 -37 1 -40 -1 -74 -60 -48 -82 -117 -149 -148 -144 -20 2
-25 10 -27 39 -3 33 1 39 35 59 85 51 122 110 69 110 -32 0 -71 -33 -102 -86
-14 -24 -27 -44 -29 -44 -1 0 3 18 8 39 15 55 -2 91 -42 91 -23 0 -41 -13 -85
-62 -48 -52 -69 -88 -52 -88 3 0 26 27 51 59 44 56 71 78 83 66 7 -7 -45 -104
-112 -207 -31 -48 -56 -90 -56 -93 0 -3 19 -5 43 -5 40 0 43 2 71 51 15 28 42
67 60 87 l31 35 5 -34 c4 -30 9 -34 38 -37 19 -2 44 4 58 13 25 16 25 16 14
-5 -18 -34 -8 -81 22 -103 54 -40 108 0 241 177 80 106 110 137 122 124 10
-10 -21 -72 -94 -188 -39 -61 -71 -114 -71 -116 0 -2 20 -4 45 -4 25 0 45 4
45 8 0 18 140 220 179 260 43 42 91 57 91 29 0 -8 -18 -41 -40 -75 -78 -121
-90 -172 -49 -213 33 -33 74 -19 137 45 46 48 52 51 52 31 0 -34 46 -83 84
-90 44 -9 90 12 154 69 51 47 52 48 52 21 0 -36 59 -95 94 -95 34 0 95 25 121
50 21 20 21 20 43 -10 14 -18 35 -31 55 -35 40 -8 111 10 147 35 24 17 25 17
42 -5 38 -51 153 -39 214 22 41 41 45 85 14 163 -29 74 -26 106 15 151 35 39
46 79 22 79 -19 0 -52 -39 -70 -80 -20 -50 -105 -150 -126 -150 -10 0 -26 -9
-36 -20 -10 -11 -21 -20 -25 -20 -10 0 -40 92 -40 124 0 19 12 42 35 67 35 39
46 79 22 79 -8 0 -23 -10 -34 -22z m-58 -295 c-38 -100 -165 -144 -165 -56 0
25 36 63 60 63 24 0 54 36 46 55 -4 11 8 33 32 62 l37 46 3 -63 c2 -42 -3 -79
-13 -107z m240 0 c-38 -100 -165 -144 -165 -56 0 25 36 63 60 63 24 0 54 36
46 55 -4 11 8 33 32 62 l37 46 3 -63 c2 -42 -3 -79 -13 -107z"/>
<path d="M3191 683 c-74 -123 -86 -171 -51 -208 35 -38 67 -32 117 20 39 41
43 43 43 22 0 -29 39 -67 69 -67 14 0 46 22 82 57 51 49 59 53 59 34 0 -13 15
-38 34 -57 39 -39 71 -43 131 -15 56 25 197 172 181 188 -3 3 -39 -31 -81 -75
-84 -90 -145 -123 -184 -103 -27 15 -28 64 -2 107 15 24 28 33 60 38 58 9 150
45 172 67 24 24 26 84 3 93 -33 13 -81 5 -140 -23 -75 -35 -124 -78 -170 -146
-41 -63 -130 -148 -147 -142 -23 8 -6 53 68 175 41 68 75 127 75 130 0 4 -17
8 -38 8 -37 1 -38 1 -102 -104 -70 -113 -160 -217 -181 -210 -28 9 -18 37 61
167 44 73 80 135 80 139 0 4 -17 8 -38 8 -37 1 -38 0 -101 -103z"/>
</g>
</svg>
