<?xml version="1.0" standalone="no"?>
<!DOCTYPE svg PUBLIC "-//W3C//DTD SVG 20010904//EN"
 "http://www.w3.org/TR/2001/REC-SVG-20010904/DTD/svg10.dtd">
<svg version="1.0" xmlns="http://www.w3.org/2000/svg"
 width="300.000000pt" height="219.000000pt" viewBox="0 0 300.000000 219.000000"
 preserveAspectRatio="xMidYMid meet">
<metadata>
Created by potrace 1.10, written by Peter Selinger 2001-2011
</metadata>
<g transform="translate(0.000000,219.000000) scale(0.050000,-0.050000)"
fill="#000000" stroke="none">
<path d="M2123 4224 c-18 -67 -51 -117 -115 -177 -78 -73 -85 -85 -52 -96 62
-20 128 -104 164 -211 l34 -102 26 91 c26 92 70 153 160 218 49 35 49 37 11
60 -83 49 -152 139 -164 216 -17 109 -35 110 -64 1z m85 -194 c33 -49 1 -150
-47 -150 -8 0 -35 23 -61 50 l-47 50 47 50 c26 28 53 50 61 50 8 0 29 -22 47
-50z"/>
<path d="M1720 3785 c-172 -31 -287 -260 -219 -436 25 -68 21 -72 -57 -50
-143 41 -364 -103 -364 -237 0 -69 -23 -76 -100 -32 -146 83 -309 -7 -348
-193 -11 -51 -14 -52 -93 -32 -100 25 -199 -49 -199 -149 0 -51 -5 -55 -50
-44 -127 32 -204 -127 -101 -208 l49 -38 -87 -85 c-152 -149 -172 -370 -47
-512 67 -76 287 -209 348 -209 21 0 63 -13 93 -29 115 -60 739 -133 766 -89
26 41 -24 58 -272 87 -639 77 -933 269 -802 525 367 719 3230 802 3919 113 60
-60 114 -104 120 -98 22 22 -59 156 -136 226 l-79 70 50 39 c103 81 26 240
-101 208 -41 -10 -50 -5 -50 27 0 118 -87 182 -225 166 -73 -9 -75 -8 -75 54
0 159 -281 270 -380 150 -39 -46 -56 -35 -70 50 -27 164 -151 253 -326 235
-104 -11 -108 -10 -94 32 117 353 -244 618 -513 377 -210 -188 -1 -559 243
-433 136 70 134 290 -1 290 -46 0 -52 -31 -9 -47 49 -19 38 -127 -18 -163 -99
-66 -212 15 -212 152 0 217 303 285 419 94 115 -187 18 -319 -399 -545 -38
-21 -86 -48 -105 -59 -36 -22 -300 103 -486 230 -256 174 -140 540 151 476
192 -43 222 -328 39 -368 -114 -25 -185 105 -106 194 44 47 21 69 -43 40 -180
-83 -42 -337 169 -312 275 32 248 449 -35 527 -77 21 -81 22 -164 6z m1267
-573 c177 -73 205 -287 54 -406 -92 -72 -261 7 -261 122 0 127 144 177 195 67
19 -42 22 -43 36 -7 36 88 -90 170 -195 126 -112 -47 -146 -126 -110 -259 15
-55 14 -55 -84 -55 -135 0 -136 10 -13 194 142 212 248 273 378 218z m-1431
-49 c87 -62 252 -336 211 -351 -86 -33 -190 -13 -174 33 43 122 -17 250 -131
283 -80 23 -169 -34 -178 -115 -8 -66 9 -67 60 -3 69 89 176 40 176 -82 0
-147 -177 -195 -292 -80 -210 210 83 490 328 315z m408 -190 c89 -51 93 -57
72 -103 -44 -98 -121 -67 -224 90 -89 135 -90 154 -7 105 36 -21 107 -63 159
-92z m596 110 c0 -9 -36 -72 -80 -140 -88 -137 -151 -161 -209 -79 -37 54 -32
60 142 158 156 87 147 83 147 61z m-1473 -222 c135 -130 135 -131 30 -151
l-73 -14 2 75 c2 80 -73 169 -143 169 -58 0 -126 -60 -119 -105 8 -56 48 -66
62 -16 12 48 78 55 114 11 71 -85 -72 -206 -169 -142 -150 98 -90 292 91 292
73 0 95 -13 205 -119z m2449 78 c91 -84 68 -211 -47 -263 -96 -44 -213 77
-149 154 36 44 102 37 114 -11 14 -50 54 -40 62 16 7 45 -61 105 -119 105 -73
0 -146 -90 -142 -175 l3 -80 -80 20 c-92 23 -92 24 4 129 140 154 263 191 354
105z m-3007 -198 c-55 -22 -95 -74 -79 -101 10 -16 26 -12 52 12 44 40 86 16
75 -43 -12 -62 -67 -80 -125 -42 -91 60 -45 194 66 192 47 -1 48 -3 11 -18z
m3334 -14 c52 -47 46 -120 -12 -158 -58 -38 -131 -10 -131 51 0 55 37 69 79
31 22 -20 42 -26 49 -14 21 33 -9 80 -65 100 -53 20 -53 20 -5 21 27 1 65 -13
85 -31z m-3163 -66 c42 -35 45 -44 20 -61 -49 -32 -80 -23 -80 23 0 24 -16 62
-35 83 -43 49 10 24 95 -45z m2993 42 c-18 -20 -33 -56 -33 -80 0 -46 -31 -55
-80 -24 -32 21 -29 25 68 98 70 53 90 56 45 6z m-3298 -189 c33 -25 32 -47 -4
-61 -18 -7 -40 10 -58 46 -30 61 -5 67 62 15z m3609 32 c-15 -5 -35 -32 -45
-58 -18 -48 -89 -48 -73 -1 8 25 92 73 124 71 11 -1 8 -6 -6 -12z m-3704 -86
c0 -25 -13 -40 -37 -40 -51 0 -65 19 -37 51 35 41 74 35 74 -11z m3772 11 c19
-19 21 -33 7 -41 -31 -20 -79 4 -79 39 0 39 34 40 72 2z"/>
<path d="M2054 2319 c-488 -82 -840 -641 -510 -811 262 -136 771 319 608 543
-83 113 -404 -24 -504 -215 -55 -106 -15 -237 74 -236 17 1 9 15 -21 38 -123
95 147 422 350 422 143 0 128 -197 -27 -355 -324 -332 -720 -187 -506 185 186
325 676 505 990 364 l78 -34 -130 -135 c-71 -74 -201 -243 -290 -375 -237
-355 -358 -450 -573 -450 -146 0 -290 106 -168 124 55 7 74 90 26 108 -112 43
-121 -154 -11 -228 234 -158 612 48 829 452 179 334 317 498 364 433 92 -126
-36 -342 -189 -317 -49 8 -84 4 -93 -10 -9 -15 12 -22 63 -22 215 0 267 -248
93 -441 -200 -221 -441 -82 -269 155 134 186 364 137 261 -55 -11 -22 -12 -39
-2 -39 91 0 59 223 -35 237 -235 33 -433 -360 -218 -435 298 -104 596 311 375
521 -65 62 -73 77 -41 77 143 0 214 215 112 336 l-50 60 75 29 c257 102 399
28 381 -198 -6 -72 -2 -106 12 -101 12 4 25 59 28 122 12 225 -196 321 -441
203 -69 -33 -80 -33 -141 -4 -144 68 -305 85 -500 52z"/>
<path d="M978 2185 c-1 -41 0 -106 2 -145 l3 -70 -70 67 c-43 42 -79 62 -94
52 -18 -11 -5 -32 43 -72 l68 -56 -195 0 c-167 -1 -195 -6 -195 -34 0 -28 23
-31 205 -18 l205 14 -75 -78 c-99 -101 -71 -129 30 -30 l78 75 -3 -70 c-7
-124 0 -180 20 -180 11 0 20 51 20 114 l0 113 60 -57 c85 -81 101 -44 19 43
l-69 72 133 -11 c144 -13 277 1 277 29 0 9 -87 17 -194 17 l-194 0 64 66 c84
87 57 114 -30 30 l-66 -64 0 134 c0 139 -38 193 -42 59z"/>
<path d="M3580 2064 c-41 -5 -81 -59 -220 -298 -182 -311 -355 -506 -449 -506
-137 0 -96 189 46 212 185 29 327 186 198 218 -89 23 -310 -104 -365 -210
-104 -201 95 -326 269 -169 l78 71 7 -66 c9 -102 95 -103 191 -2 40 42 68 63
61 46 -41 -110 75 -154 171 -65 l59 55 -50 -86 c-40 -69 -77 -98 -194 -154
-252 -121 -374 -253 -322 -350 69 -129 325 32 510 319 50 79 114 153 148 170
68 35 262 226 262 258 0 11 -44 -28 -98 -88 -53 -60 -127 -126 -163 -147 l-65
-38 66 118 c37 65 97 165 133 223 l67 105 -55 0 c-46 -1 -67 -21 -132 -133
-130 -222 -273 -353 -273 -250 0 20 45 110 100 201 116 192 114 182 51 182
-37 0 -62 -24 -110 -109 -74 -129 -233 -311 -273 -311 -58 0 -22 84 192 440
121 202 218 368 215 369 -3 1 -27 -1 -55 -5z m-440 -443 c-22 -42 -125 -109
-200 -131 -45 -13 -42 -6 30 70 109 115 220 154 170 61z m309 -576 c-121 -210
-257 -329 -339 -298 -91 35 23 191 228 313 169 100 177 99 111 -15z"/>
<path d="M4575 2048 c-8 -8 -15 -69 -15 -135 l0 -121 -70 68 c-50 48 -76 62
-91 47 -16 -16 0 -40 54 -84 l76 -63 -194 0 c-166 0 -195 -5 -195 -32 0 -29
25 -32 190 -24 209 9 214 7 137 -55 -34 -26 -48 -52 -38 -67 11 -19 31 -10 73
30 l58 55 0 -123 c0 -86 8 -124 25 -124 18 0 24 35 20 120 -5 133 1 140 69 77
67 -63 83 -27 18 41 l-55 57 195 -2 c139 -2 197 4 203 22 6 19 -40 25 -187 25
l-196 0 76 78 c52 53 68 82 52 92 -15 9 -49 -14 -87 -58 -75 -86 -102 -92 -87
-17 13 68 -10 214 -31 193z"/>
<path d="M900 1041 c-288 -87 -447 -394 -256 -493 173 -90 502 218 372 348
-54 54 -241 -23 -293 -121 -33 -61 -23 -159 17 -172 26 -8 26 -5 3 24 -63 76
95 263 211 249 175 -20 -41 -316 -232 -316 -162 0 -162 179 1 333 133 125 333
178 484 128 86 -28 88 -34 26 -83 -26 -20 -102 -116 -168 -212 -185 -270 -253
-326 -391 -326 -97 1 -134 31 -84 68 46 34 16 86 -39 65 -40 -15 -40 -81 0
-122 120 -119 407 0 520 215 51 98 60 106 117 98 132 -19 160 -159 52 -267
-127 -127 -262 -34 -148 101 73 87 160 82 154 -8 -3 -50 -1 -54 16 -25 49 85
-29 149 -124 102 -149 -72 -158 -267 -13 -267 182 0 313 223 194 331 l-41 37
51 26 c67 36 86 115 44 186 -39 66 -20 80 108 80 93 0 152 -67 131 -150 -7
-29 -4 -50 8 -50 11 0 20 35 20 79 0 134 -124 196 -270 133 -49 -21 -72 -21
-124 1 -69 29 -264 33 -346 8z m436 -147 c9 -75 -71 -153 -143 -139 l-54 10
54 72 c29 40 62 85 73 99 30 38 63 18 70 -42z"/>
<path d="M3722 998 c-286 -143 -342 -472 -79 -465 184 5 403 300 274 369 -135
72 -395 -176 -293 -278 35 -35 66 -30 36 6 -60 72 83 250 201 250 134 0 28
-240 -134 -301 -233 -89 -295 117 -95 312 134 130 330 181 485 127 78 -27 78
-31 -1 -112 -35 -36 -118 -144 -185 -240 -138 -198 -222 -266 -330 -266 -88 0
-167 46 -114 66 45 18 42 74 -5 74 -88 0 -62 -126 34 -162 164 -63 374 70 504
317 104 198 187 286 218 228 46 -86 -25 -202 -126 -204 -58 -1 -59 -3 -16 -20
126 -51 258 100 196 224 -40 78 -21 96 102 97 94 0 109 -16 127 -130 l12 -80
17 59 c37 133 -88 223 -237 169 -70 -25 -95 -26 -144 -5 -115 49 -309 34 -447
-35z"/>
<path d="M2307 749 c-7 -17 -7 -36 0 -42 20 -21 73 10 73 42 0 40 -58 40 -73
0z"/>
<path d="M4567 749 c-7 -17 -7 -36 0 -42 20 -21 73 10 73 42 0 40 -58 40 -73
0z"/>
<path d="M2093 654 c-59 -112 -177 -254 -211 -254 -27 0 -8 48 61 160 48 78
51 91 22 97 -18 4 -37 -2 -40 -13 -15 -43 -156 -231 -180 -239 -42 -14 -28 40
35 135 67 101 72 120 33 120 -28 0 -138 -148 -146 -197 -12 -78 63 -113 114
-52 24 29 28 29 43 0 23 -40 73 -40 119 2 33 30 37 30 49 0 17 -45 74 -41 119
8 l37 41 15 -41 c20 -53 80 -53 128 0 l37 41 15 -41 c10 -26 32 -40 61 -39 34
2 37 5 11 12 -67 17 46 226 131 242 54 11 40 -45 -36 -144 -38 -51 -65 -92
-60 -92 6 0 -27 -59 -72 -131 -80 -127 -89 -165 -33 -144 20 8 242 359 328
518 3 7 -31 13 -78 13 -104 2 -191 -49 -264 -154 -52 -75 -105 -114 -126 -93
-10 9 31 85 105 198 33 51 33 53 -3 53 -22 0 -54 -27 -75 -62 -47 -80 -151
-198 -174 -198 -35 0 -17 47 72 195 104 173 101 165 54 165 -23 0 -56 -38 -91
-106z"/>
<path d="M5644 736 c-13 -13 -24 -32 -24 -41 0 -31 -87 -135 -113 -135 -14 0
-40 -27 -57 -61 -37 -71 -120 -117 -152 -85 -33 33 11 99 76 115 130 32 201
131 95 131 -76 0 -127 -33 -242 -155 -110 -118 -182 -137 -172 -46 7 61 98
181 136 181 41 0 36 -26 -11 -55 -47 -30 -53 -65 -11 -65 32 0 71 59 71 109 0
80 -107 33 -233 -103 -138 -149 -179 -157 -98 -20 76 130 11 215 -92 121 -34
-31 -37 -31 -37 0 0 51 -71 39 -109 -19 -147 -224 -273 -279 -142 -62 60 101
64 114 30 114 -21 0 -51 -25 -67 -56 -16 -32 -43 -68 -59 -81 -42 -35 -13
-131 42 -139 28 -4 59 17 98 67 175 227 219 248 101 50 -101 -170 -34 -171 75
-2 106 163 199 201 111 45 -75 -132 -10 -223 84 -118 l44 50 22 -43 c31 -63
112 -65 169 -4 l48 51 22 -45 c25 -52 100 -69 143 -33 22 18 35 19 53 1 28
-28 105 -30 156 -3 27 15 50 14 78 -4 99 -62 202 38 168 164 -19 70 -17 88 16
129 40 52 46 71 20 71 -9 0 -45 -45 -81 -100 -36 -55 -77 -100 -92 -100 -15 0
-30 -11 -35 -24 -4 -14 -18 4 -30 39 -19 53 -16 71 16 112 55 70 42 108 -17
49z m-210 -147 c-73 -64 -115 -64 -54 1 26 28 61 50 78 49 23 0 16 -15 -24
-50z m156 -121 c-40 -62 -85 -81 -116 -49 -19 19 -10 35 36 72 33 27 52 49 42
49 -10 0 -1 19 20 42 l38 43 6 -54 c4 -29 -8 -76 -26 -103z m200 0 c-40 -62
-85 -81 -116 -49 -19 19 -12 34 31 68 30 25 55 54 55 65 0 11 11 31 25 45 40
41 44 -70 5 -129z"/>
<path d="M1515 623 c-31 -20 -69 -53 -85 -75 -86 -113 30 -228 130 -128 22 22
49 40 59 40 11 0 15 13 9 28 -6 15 -1 34 11 41 11 7 21 40 21 72 0 71 -58 80
-145 22z m125 -1 c0 -9 -13 -28 -30 -42 -16 -14 -30 -43 -30 -66 0 -48 -54
-114 -93 -114 -49 0 -28 97 35 169 58 66 118 93 118 53z"/>
<path d="M2675 562 c-81 -144 -53 -240 45 -152 36 32 40 33 52 3 17 -45 67
-41 120 9 l45 42 22 -42 c37 -69 121 -54 211 38 42 43 73 84 67 89 -5 6 -45
-26 -87 -69 -82 -84 -150 -105 -150 -45 1 54 22 72 120 105 111 37 144 120 48
120 -71 0 -162 -64 -238 -166 -112 -151 -150 -113 -50 49 96 157 42 175 -58
20 -70 -109 -136 -176 -155 -157 -11 12 24 80 103 201 33 51 33 53 -3 53 -24
0 -57 -35 -92 -98z m505 59 c0 -23 -119 -89 -133 -75 -11 11 91 94 116 94 9 0
17 -9 17 -19z"/>
<path d="M4224 614 c-24 -25 -44 -55 -44 -65 0 -11 22 8 48 41 77 95 78 48 2
-71 -78 -123 -83 -139 -39 -139 17 0 50 33 73 72 38 64 46 69 67 40 13 -17 30
-32 39 -32 8 0 4 13 -9 29 -14 16 -26 59 -28 95 -4 82 -49 94 -109 30z"/>
<path d="M4372 616 c-17 -24 -28 -47 -23 -51 12 -12 111 57 111 77 0 35 -58
17 -88 -26z"/>
</g>
</svg>
